PathFileType	4	(X/Y/Z)	./resultDataOpenSim/trcMotMarkerGrf/sub09/qtm-05-01.trc
DataRate	CameraRate	NumFrames	NumMarkers	Units	OrigDataRate	OrigDataStartFrame	OrigNumFrames
250.000000	250.000000	13	24	m	250.000000	66	521
Frame#	Time	L.Toe.Tip			R.Toe.Tip			L.Ankle.Lat			R.Ankle.Lat			L.Ankle.Med			R.Ankle.Med			L.Heel			R.Heel			L.Knee.Lat			R.Knee.Lat			L.Knee.Med			R.Knee.Med			L.Thigh.Upper			R.Thigh.Upper			L.ASIS			R.ASIS			V.Sacral			L.Acromium			R.Acromium			C7			L.Elbow			R.Elbow			L.Wrist.Lat			R.Wrist.Lat
		X1	Y1	Z1	X2	Y2	Z2	X3	Y3	Z3	X4	Y4	Z4	X5	Y5	Z5	X6	Y6	Z6	X7	Y7	Z7	X8	Y8	Z8	X9	Y9	Z9	X10	Y10	Z10	X11	Y11	Z11	X12	Y12	Z12	X13	Y13	Z13	X14	Y14	Z14	X15	Y15	Z15	X16	Y16	Z16	X17	Y17	Z17	X18	Y18	Z18	X19	Y19	Z19	X20	Y20	Z20	X21	Y21	Z21	X22	Y22	Z22	X23	Y23	Z23	X24	Y24	Z24

66	0.26	-1.4039183	0.082253002	-0.019834257	-0.64787519	0.039514688	0.094830206	-1.4209201	0.23622527	-0.078520002	-0.79312209	0.053472094	0.13399214	-1.3998929	0.22460973	0.015891466	-0.78937854	0.09000471	0.040876805	-1.4830501	0.28381866	-0.034736995	-0.8626246	0.027857563	0.093335531	-1.0473842	0.41880568	-0.09749353	-0.7574394	0.50700861	0.18405966	-1.0421249	0.4044212	0.028015666	-0.78068934	0.49277636	0.059225726	-0.9995655	0.82475267	-0.10967775	-0.97170254	0.84903506	0.26138469	-0.90659205	0.90956006	-0.054684776	-0.901978	0.93609807	0.18375819	-1.0727288	0.97848845	0.068030142	-0.90343496	1.3809293	-0.092158859	-0.95356674	1.3780483	0.23526339	-0.99874845	1.428819	0.066627006	-1.0094724	1.0198347	-0.16519167	-1.1035597	1.0425216	0.28036842	-0.77451028	0.8825746	-0.14588474	-1.0020063	0.79389226	0.31990773
67	0.264	-1.3922565	0.085182093	-0.022398511	-0.64779906	0.039445292	0.094585603	-1.4092508	0.2396562	-0.078479656	-0.79261557	0.053593916	0.13396192	-1.3891079	0.22687487	0.016196478	-0.78911364	0.08995843	0.040696401	-1.4710123	0.28731054	-0.03434733	-0.86287796	0.028926963	0.091463882	-1.0341256	0.41870108	-0.097552265	-0.75348626	0.5067562	0.18364953	-1.0304333	0.40426472	0.028425682	-0.77731912	0.49269449	0.058875105	-0.99326627	0.82501573	-0.10927948	-0.96548606	0.8498573	0.26183553	-0.90107562	0.91017634	-0.054503273	-0.89615581	0.93672863	0.18402261	-1.0669912	0.97924448	0.068131868	-0.89753456	1.3814257	-0.09198997	-0.94706164	1.3787442	0.23549957	-0.99270277	1.42964	0.06698544	-1.0037571	1.0203848	-0.16455803	-1.0964385	1.0425118	0.28070609	-0.77074913	0.88022572	-0.14590905	-0.99182924	0.79450545	0.31947109
68	0.268	-1.3800636	0.087928876	-0.024929013	-0.64773279	0.039373997	0.094362168	-1.397337	0.24289398	-0.078363076	-0.79196243	0.053681026	0.13378964	-1.3777826	0.22892946	0.016425047	-0.78885616	0.089906382	0.040525479	-1.458974	0.29033207	-0.033453297	-0.86318441	0.030183218	0.089250531	-1.0211199	0.41876042	-0.09741488	-0.74960595	0.50639615	0.18330066	-1.0178576	0.40418409	0.02882912	-0.77405145	0.49260498	0.058550654	-0.98674784	0.82541387	-0.1088355	-0.95937926	0.85085648	0.26220015	-0.89561564	0.91088187	-0.054353983	-0.89036392	0.93749439	0.18420904	-1.0613666	0.98005025	0.068260759	-0.8917139	1.3819971	-0.091851501	-0.94056019	1.3795051	0.2357234	-0.98672752	1.4305421	0.067251611	-0.99803384	1.0209846	-0.16383519	-1.0891833	1.042543	0.28138542	-0.76707541	0.87793489	-0.14597663	-0.98159495	0.79524772	0.31900392
69	0.272	-1.3673959	0.090488907	-0.027392694	-0.6476859	0.039313348	0.094176876	-1.3851666	0.24589978	-0.078197471	-0.79140971	0.05373192	0.13358058	-1.3652034	0.23093113	0.016344858	-0.78862976	0.089852555	0.040374968	-1.446879	0.29292134	-0.032320655	-0.86337114	0.030882518	0.088003965	-1.008222	0.41901775	-0.097201862	-0.74585571	0.50599902	0.18303688	-1.004534	0.40418937	0.029247106	-0.7708691	0.49249317	0.058259567	-0.98026778	0.82593609	-0.10842744	-0.95325643	0.85200533	0.26248625	-0.89018509	0.91167506	-0.054214027	-0.88459628	0.93838506	0.18432972	-1.0558437	0.98089385	0.068436501	-0.8859821	1.3826534	-0.09173275	-0.93408482	1.3803365	0.23593928	-0.98088582	1.4315589	0.067261882	-0.99229947	1.0216577	-0.16298862	-1.0819076	1.0425925	0.28206352	-0.76349961	0.87571178	-0.14608089	-0.97132437	0.79611698	0.31851269
70	0.276	-1.3542937	0.092861735	-0.029777421	-0.64766407	0.039272355	0.094034896	-1.3727345	0.24863509	-0.078000734	-0.79108243	0.053776253	0.13343348	-1.3511065	0.23291918	0.015875057	-0.78844126	0.089804449	0.040251285	-1.4346735	0.29512787	-0.031227889	-0.86344951	0.031058178	0.087680224	-0.99531904	0.41949708	-0.096984945	-0.74228093	0.50560718	0.18284496	-0.99056445	0.40432251	0.029690982	-0.76774527	0.49234676	0.058022221	-0.97410237	0.82655804	-0.10814049	-0.94693604	0.85327054	0.26275752	-0.88478319	0.91255421	-0.054065677	-0.87884934	0.93937354	0.18439715	-1.0503998	0.98177833	0.068663761	-0.88033101	1.3833995	-0.091624027	-0.92763604	1.3812341	0.23614471	-0.97520242	1.4326957	0.066952676	-0.98657869	1.0224312	-0.1620442	-1.0747912	1.0426814	0.28234584	-0.76000998	0.87355965	-0.14621094	-0.96103997	0.7971123	0.31799987
71	0.28	-1.34078	0.095049922	-0.03208373	-0.64766955	0.039249522	0.093927922	-1.3600484	0.25108079	-0.07778201	-0.79098039	0.053833688	0.13338256	-1.3363102	0.23471138	0.01530036	-0.78828702	0.089767913	0.040153801	-1.4223277	0.296983	-0.030331054	-0.86349434	0.031023724	0.08773334	-0.982437	0.42019028	-0.096747627	-0.73891441	0.50522701	0.18271159	-0.97641034	0.40462632	0.030153858	-0.76466469	0.49216739	0.057853873	-0.96822862	0.82727731	-0.10796816	-0.94042712	0.85462017	0.26305495	-0.87942942	0.91352649	-0.053895684	-0.87312907	0.94043168	0.1844316	-1.0449759	0.98274692	0.06893575	-0.87474756	1.3842383	-0.091523557	-0.9212046	1.3821937	0.2363388	-0.96959312	1.4339099	0.066539972	-0.98093755	1.0233106	-0.16110713	-1.0678172	1.042848	0.28234793	-0.75659071	0.87147954	-0.14635659	-0.95078059	0.79823624	0.31746192
72	0.284	-1.3268681	0.097057983	-0.034308443	-0.64770083	0.039240775	0.093843798	-1.347133	0.25322916	-0.077543704	-0.79100718	0.053897915	0.13338758	-1.3220108	0.23610707	0.015018036	-0.78816295	0.089742522	0.040078182	-1.409847	0.29849393	-0.029624121	-0.86354842	0.030977243	0.087811918	-0.96965772	0.42106622	-0.096441626	-0.73575764	0.50485849	0.18263711	-0.96264341	0.40513479	0.030638678	-0.76162364	0.49197097	0.057751696	-0.96244403	0.82811372	-0.10784541	-0.93399749	0.85602556	0.26336053	-0.87413409	0.91460099	-0.053700227	-0.86745103	0.94154058	0.18446568	-1.0395146	0.98385137	0.069235129	-0.86922641	1.3851702	-0.091438496	-0.91479245	1.3832242	0.23652832	-0.96392875	1.4351422	0.066349941	-0.97545879	1.0242858	-0.16031252	-1.0608035	1.0431167	0.28255362	-0.75324438	0.86948034	-0.14651038	-0.94058035	0.79949029	0.3168966
73	0.288	-1.3125709	0.098890348	-0.036435407	-0.64775269	0.039242177	0.093777493	-1.334033	0.25507312	-0.07728931	-0.7910696	0.053958444	0.13339534	-1.3086393	0.23711975	0.015132539	-0.78806585	0.089723904	0.040022086	-1.397257	0.29965839	-0.029007127	-0.86361789	0.030974307	0.087811792	-0.95701295	0.42209406	-0.096050598	-0.73279305	0.50450091	0.18262516	-0.94943508	0.40586173	0.031148827	-0.75862104	0.49177578	0.057702136	-0.95663967	0.82908231	-0.10771942	-0.92798394	0.85745484	0.26362583	-0.86887574	0.91577628	-0.053484815	-0.86183526	0.94268642	0.18452413	-1.0340182	0.98509608	0.06953024	-0.86377338	1.3861962	-0.091374362	-0.90841645	1.3843378	0.23672383	-0.95816212	1.436366	0.06648754	-0.9701392	1.0253618	-0.15962945	-1.0536173	1.04349	0.28328884	-0.75000486	0.86757821	-0.14666999	-0.93043626	0.80087558	0.31631094
74	0.292	-1.2979064	0.10055336	-0.038446262	-0.647819	0.039248518	0.093732821	-1.3207959	0.25661427	-0.077028503	-0.79112845	0.054011556	0.13338839	-1.2959729	0.23789676	0.015515814	-0.78799	0.089710475	0.039987551	-1.3845802	0.30047805	-0.028400405	-0.8636941	0.031001919	0.087746373	-0.94441433	0.423263	-0.095596905	-0.73000389	0.50413778	0.18268533	-0.93659733	0.40678451	0.03166134	-0.75566255	0.49159254	0.057689839	-0.95084823	0.83017813	-0.1075737	-0.92254385	0.85886407	0.26382567	-0.86360135	0.91704485	-0.053256262	-0.85630302	0.94385248	0.18461126	-1.0285291	0.98643853	0.069792626	-0.85839126	1.3873137	-0.091325335	-0.90208955	1.3855342	0.23692894	-0.95233907	1.4375927	0.066816134	-0.96479566	1.0265379	-0.15876962	-1.0462271	1.0439629	0.28461693	-0.74691334	0.86578442	-0.14683562	-0.92031284	0.80240086	0.31572253
75	0.296	-1.2828938	0.10205513	-0.040332147	-0.64789572	0.039256476	0.093715313	-1.3074536	0.25787375	-0.076773846	-0.79118155	0.05405797	0.13337917	-1.2838003	0.23853014	0.016061175	-0.7879288	0.08970556	0.039978023	-1.3718291	0.30095487	-0.027797112	-0.86376806	0.031036605	0.087648567	-0.93170242	0.42459648	-0.09511677	-0.72736916	0.50374246	0.18283895	-0.92389742	0.40788258	0.032172574	-0.75277933	0.49142594	0.057712202	-0.94513987	0.8313843	-0.10742856	-0.91759893	0.86020961	0.26397391	-0.85825336	0.91841015	-0.053019615	-0.85087113	0.94502197	0.1847232	-1.0230772	0.98783231	0.070012214	-0.85306929	1.3885116	-0.091280925	-0.8958092	1.3868041	0.23713867	-0.94651857	1.4388462	0.06717219	-0.95917763	1.0277788	-0.15741704	-1.0386665	1.0445315	0.2864498	-0.74397688	0.86410296	-0.14700482	-0.91017695	0.80407993	0.31514949
76	0.3	-1.2675537	0.10339925	-0.042085622	-0.64798016	0.039267669	0.093725862	-1.2940302	0.2588711	-0.076526368	-0.79123962	0.054099296	0.13338327	-1.271903	0.23900636	0.016696732	-0.78787906	0.089714404	0.039994256	-1.3590098	0.3010885	-0.02723289	-0.86383206	0.031065312	0.087540865	-0.91887769	0.42613384	-0.094641605	-0.72487525	0.5033093	0.18309584	-0.91114186	0.40916045	0.032739766	-0.75003259	0.49127664	0.057799588	-0.93949213	0.83269509	-0.10728246	-0.9129511	0.86147943	0.26409631	-0.85282252	0.91988173	-0.052777767	-0.84553715	0.94618995	0.18485562	-1.0176664	0.98925744	0.070197535	-0.84779488	1.3897775	-0.091234201	-0.88957646	1.3881399	0.23734979	-0.94072367	1.4401454	0.067490508	-0.95328923	1.0290642	-0.15562202	-1.0310684	1.0451848	0.28846946	-0.74117087	0.86253719	-0.14717646	-0.90002103	0.80591686	0.31459655
77	0.304	-1.2519168	0.10457825	-0.043692854	-0.64807049	0.039284569	0.093760805	-1.280547	0.25959979	-0.076274462	-0.79130999	0.054133637	0.13340423	-1.2596101	0.23929604	0.017245153	-0.78783995	0.089742466	0.040034571	-1.3461228	0.3008826	-0.026729983	-0.86388072	0.031085737	0.087436619	-0.90617019	0.42787917	-0.094173687	-0.72253138	0.50287519	0.18342421	-0.89815694	0.41059349	0.033428332	-0.74746061	0.49114131	0.057989693	-0.93370653	0.83412602	-0.10705677	-0.90836453	0.8627013	0.26421961	-0.84737149	0.92145132	-0.052525177	-0.84025101	0.94736539	0.18500793	-1.0122884	0.9907257	0.070369391	-0.84256422	1.3911026	-0.091182234	-0.88340651	1.3895352	0.23756255	-0.93495136	1.4414925	0.067786429	-0.9474693	1.0304268	-0.15386586	-1.0236071	1.0459082	0.29025425	-0.7384714	0.86108938	-0.14735341	-0.88986883	0.80790204	0.31405385
78	0.308	-1.2360384	0.10557059	-0.04513614	-0.64816758	0.039305194	0.093815561	-1.2669878	0.26004628	-0.076014374	-0.79138941	0.05415651	0.13343339	-1.2460106	0.23943559	0.017456103	-0.78781201	0.08979414	0.040098109	-1.3331605	0.30034692	-0.026282156	-0.86391543	0.031101191	0.087341599	-0.8937309	0.42979551	-0.093676312	-0.72033124	0.50248926	0.18376577	-0.88492409	0.41213297	0.034238114	-0.74502496	0.49101649	0.058275643	-0.9275581	0.83568259	-0.106696	-0.9036439	0.8639163	0.26437121	-0.84197567	0.92309486	-0.052250158	-0.83488845	0.948562	0.18519301	-1.0069492	0.99225588	0.070548368	-0.83737309	1.3924783	-0.091127951	-0.87729621	1.3909861	0.23777282	-0.92919678	1.4428785	0.068083614	-0.94200478	1.0318972	-0.1525419	-1.0163405	1.0466955	0.29165088	-0.73586445	0.8597613	-0.14753625	-0.87976611	0.81002243	0.31350812
